<svg width="202" height="32" viewBox="0 0 202 32">
  <g fill="none" fill-rule="evenodd" transform="translate(1 1)">
    <path fill="#FFF" stroke="#68839F" d="M84.1250536,8.8817842e-16 C88.3558528,3.73418047 93.9133212,6 100,6 C106.086679,6 111.644147,3.73418047 115.874946,8.8817842e-16 L196,0 C198.209139,-4.05812251e-16 200,1.790861 200,4 L200,26 C200,28.209139 198.209139,30 196,30 L4,30 C1.790861,30 2.705415e-16,28.209139 0,26 L0,4 C-2.705415e-16,1.790861 1.790861,4.05812251e-16 4,0 L84.1250536,0 Z"/>
    <path fill="#5C7898" fill-rule="nonzero" d="M21,21 L24,21 L24,19.7692308 L21,19.7692308 C19.346,19.7692308 18,18.9409231 18,17.9230769 C18,16.9052308 19.346,16.0769231 21,16.0769231 L28,16.0769231 L28,17.9230769 L32,15.4615385 L28,13 L28,14.8461538 L21,14.8461538 C18.243,14.8461538 16,16.2264615 16,17.9230769 C16,19.6196923 18.243,21 21,21 Z"/>
    <path fill="#5C7898" fill-rule="nonzero" d="M173,21 L176,21 L176,19.7692308 L173,19.7692308 C171.346,19.7692308 170,18.9409231 170,17.9230769 C170,16.9052308 171.346,16.0769231 173,16.0769231 L180,16.0769231 L180,17.9230769 L184,15.4615385 L180,13 L180,14.8461538 L173,14.8461538 C170.243,14.8461538 168,16.2264615 168,17.9230769 C168,19.6196923 170.243,21 173,21 Z" transform="rotate(180 176 17)"/>
  </g>
</svg>
